<mxfile host="app.diagrams.net" modified="2021-05-13T12:20:04.307Z" agent="5.0 (Windows NT 10.0; Win64; x64) AppleWebKit/537.36 (KHTML, like Gecko) Chrome/90.0.4430.93 Safari/537.36" etag="CKcwmpz_w5VUrMLPoNvo" version="14.6.12" type="github">
  <diagram id="EXSK7UW9LjUbuVWIK-7f" name="Page-1">
    <mxGraphModel dx="899" dy="558" grid="1" gridSize="10" guides="1" tooltips="1" connect="1" arrows="1" fold="1" page="1" pageScale="1" pageWidth="827" pageHeight="2569" math="0" shadow="0">
      <root>
        <mxCell id="0" />
        <mxCell id="1" parent="0" />
        <mxCell id="JnirWKJu8oiId7rXM8OC-3" style="rounded=0;orthogonalLoop=1;jettySize=auto;html=1;exitX=0.5;exitY=1;exitDx=0;exitDy=0;entryX=0.5;entryY=0;entryDx=0;entryDy=0;" edge="1" parent="1" source="JnirWKJu8oiId7rXM8OC-1" target="JnirWKJu8oiId7rXM8OC-2">
          <mxGeometry relative="1" as="geometry" />
        </mxCell>
        <mxCell id="JnirWKJu8oiId7rXM8OC-1" value="new Vue()&lt;br&gt;创建实例" style="shape=ext;double=1;rounded=0;whiteSpace=wrap;html=1;fillColor=#1ba1e2;strokeColor=#006EAF;fontColor=#ffffff;" vertex="1" parent="1">
          <mxGeometry x="270" y="100" width="120" height="60" as="geometry" />
        </mxCell>
        <mxCell id="JnirWKJu8oiId7rXM8OC-5" style="edgeStyle=none;rounded=0;orthogonalLoop=1;jettySize=auto;html=1;exitX=0.5;exitY=1;exitDx=0;exitDy=0;entryX=0.5;entryY=0;entryDx=0;entryDy=0;" edge="1" parent="1" source="JnirWKJu8oiId7rXM8OC-2" target="JnirWKJu8oiId7rXM8OC-4">
          <mxGeometry relative="1" as="geometry" />
        </mxCell>
        <mxCell id="JnirWKJu8oiId7rXM8OC-2" value="&lt;div style=&quot;font-family: &amp;#34;consolas&amp;#34; , &amp;#34;courier new&amp;#34; , monospace ; font-size: 14px ; line-height: 19px&quot;&gt;&lt;font&gt;initLifecycle()&lt;/font&gt;&lt;/div&gt;&lt;div style=&quot;font-family: &amp;#34;consolas&amp;#34; , &amp;#34;courier new&amp;#34; , monospace ; font-size: 14px ; line-height: 19px&quot;&gt;&lt;font&gt;初始化生命周期&lt;/font&gt;&lt;/div&gt;" style="shape=ext;double=1;rounded=1;whiteSpace=wrap;html=1;fillColor=#6d8764;strokeColor=#3A5431;fontColor=#ffffff;" vertex="1" parent="1">
          <mxGeometry x="270" y="220" width="120" height="60" as="geometry" />
        </mxCell>
        <mxCell id="JnirWKJu8oiId7rXM8OC-7" style="edgeStyle=none;rounded=0;orthogonalLoop=1;jettySize=auto;html=1;exitX=0.5;exitY=1;exitDx=0;exitDy=0;" edge="1" parent="1" source="JnirWKJu8oiId7rXM8OC-4" target="JnirWKJu8oiId7rXM8OC-6">
          <mxGeometry relative="1" as="geometry" />
        </mxCell>
        <mxCell id="JnirWKJu8oiId7rXM8OC-4" value="&lt;div style=&quot;font-family: &amp;#34;consolas&amp;#34; , &amp;#34;courier new&amp;#34; , monospace ; font-size: 14px ; line-height: 19px&quot;&gt;&lt;font&gt;initEvents()&lt;/font&gt;&lt;/div&gt;&lt;div style=&quot;font-family: &amp;#34;consolas&amp;#34; , &amp;#34;courier new&amp;#34; , monospace ; font-size: 14px ; line-height: 19px&quot;&gt;&lt;font&gt;初始化事件&lt;/font&gt;&lt;/div&gt;" style="shape=ext;double=1;rounded=1;whiteSpace=wrap;html=1;fillColor=#6d8764;strokeColor=#3A5431;fontColor=#ffffff;" vertex="1" parent="1">
          <mxGeometry x="270" y="320" width="120" height="60" as="geometry" />
        </mxCell>
        <mxCell id="JnirWKJu8oiId7rXM8OC-9" style="edgeStyle=none;rounded=0;orthogonalLoop=1;jettySize=auto;html=1;exitX=0.5;exitY=1;exitDx=0;exitDy=0;entryX=0.5;entryY=0;entryDx=0;entryDy=0;" edge="1" parent="1" source="JnirWKJu8oiId7rXM8OC-6" target="JnirWKJu8oiId7rXM8OC-8">
          <mxGeometry relative="1" as="geometry" />
        </mxCell>
        <mxCell id="JnirWKJu8oiId7rXM8OC-6" value="&lt;div style=&quot;font-family: &amp;#34;consolas&amp;#34; , &amp;#34;courier new&amp;#34; , monospace ; font-size: 14px ; line-height: 19px&quot;&gt;&lt;font&gt;initRender()&lt;/font&gt;&lt;/div&gt;&lt;div style=&quot;font-family: &amp;#34;consolas&amp;#34; , &amp;#34;courier new&amp;#34; , monospace ; font-size: 14px ; line-height: 19px&quot;&gt;&lt;font&gt;初始化渲染&lt;/font&gt;&lt;/div&gt;" style="shape=ext;double=1;rounded=1;whiteSpace=wrap;html=1;fillColor=#6d8764;strokeColor=#3A5431;fontColor=#ffffff;" vertex="1" parent="1">
          <mxGeometry x="270" y="420" width="120" height="60" as="geometry" />
        </mxCell>
        <mxCell id="JnirWKJu8oiId7rXM8OC-14" style="edgeStyle=none;rounded=0;orthogonalLoop=1;jettySize=auto;html=1;exitX=0.5;exitY=1;exitDx=0;exitDy=0;entryX=0.5;entryY=0;entryDx=0;entryDy=0;" edge="1" parent="1" source="JnirWKJu8oiId7rXM8OC-8" target="JnirWKJu8oiId7rXM8OC-13">
          <mxGeometry relative="1" as="geometry" />
        </mxCell>
        <mxCell id="JnirWKJu8oiId7rXM8OC-8" value="&lt;div style=&quot;font-family: &amp;#34;consolas&amp;#34; , &amp;#34;courier new&amp;#34; , monospace ; font-size: 14px ; line-height: 19px&quot;&gt;&lt;font&gt;initInjections()&lt;/font&gt;&lt;/div&gt;&lt;div style=&quot;font-family: &amp;#34;consolas&amp;#34; , &amp;#34;courier new&amp;#34; , monospace ; font-size: 14px ; line-height: 19px&quot;&gt;&lt;font&gt;初始化Inject&lt;/font&gt;&lt;/div&gt;" style="shape=ext;double=1;rounded=1;whiteSpace=wrap;html=1;fillColor=#6d8764;strokeColor=#3A5431;fontColor=#ffffff;" vertex="1" parent="1">
          <mxGeometry x="260" y="540" width="140" height="60" as="geometry" />
        </mxCell>
        <mxCell id="JnirWKJu8oiId7rXM8OC-10" value="" style="endArrow=classic;html=1;" edge="1" parent="1">
          <mxGeometry width="50" height="50" relative="1" as="geometry">
            <mxPoint x="330" y="510" as="sourcePoint" />
            <mxPoint x="220" y="510" as="targetPoint" />
          </mxGeometry>
        </mxCell>
        <mxCell id="JnirWKJu8oiId7rXM8OC-12" value="&lt;font size=&quot;1&quot;&gt;beforeCreate&lt;/font&gt;" style="shape=ext;double=1;rounded=0;whiteSpace=wrap;html=1;strokeColor=#10739e;fillColor=#b1ddf0;" vertex="1" parent="1">
          <mxGeometry x="100" y="490" width="120" height="40" as="geometry" />
        </mxCell>
        <mxCell id="JnirWKJu8oiId7rXM8OC-16" style="edgeStyle=none;rounded=0;orthogonalLoop=1;jettySize=auto;html=1;exitX=0.5;exitY=1;exitDx=0;exitDy=0;entryX=0.5;entryY=0;entryDx=0;entryDy=0;" edge="1" parent="1" source="JnirWKJu8oiId7rXM8OC-13" target="JnirWKJu8oiId7rXM8OC-15">
          <mxGeometry relative="1" as="geometry" />
        </mxCell>
        <mxCell id="JnirWKJu8oiId7rXM8OC-13" value="&lt;div style=&quot;font-family: &amp;#34;consolas&amp;#34; , &amp;#34;courier new&amp;#34; , monospace ; font-size: 14px ; line-height: 19px&quot;&gt;&lt;font&gt;initState()&lt;/font&gt;&lt;/div&gt;&lt;div style=&quot;font-family: &amp;#34;consolas&amp;#34; , &amp;#34;courier new&amp;#34; , monospace ; font-size: 14px ; line-height: 19px&quot;&gt;&lt;font&gt;初始化data/props&lt;/font&gt;&lt;/div&gt;" style="shape=ext;double=1;rounded=1;whiteSpace=wrap;html=1;fillColor=#6d8764;strokeColor=#3A5431;fontColor=#ffffff;" vertex="1" parent="1">
          <mxGeometry x="260" y="640" width="140" height="60" as="geometry" />
        </mxCell>
        <mxCell id="JnirWKJu8oiId7rXM8OC-23" style="edgeStyle=none;rounded=0;orthogonalLoop=1;jettySize=auto;html=1;exitX=0.5;exitY=1;exitDx=0;exitDy=0;entryX=0.5;entryY=0;entryDx=0;entryDy=0;entryPerimeter=0;" edge="1" parent="1" source="JnirWKJu8oiId7rXM8OC-15" target="JnirWKJu8oiId7rXM8OC-22">
          <mxGeometry relative="1" as="geometry" />
        </mxCell>
        <mxCell id="JnirWKJu8oiId7rXM8OC-15" value="&lt;div style=&quot;font-family: &amp;#34;consolas&amp;#34; , &amp;#34;courier new&amp;#34; , monospace ; font-size: 14px ; line-height: 19px&quot;&gt;&lt;font&gt;initProvide()&lt;/font&gt;&lt;/div&gt;&lt;div style=&quot;font-family: &amp;#34;consolas&amp;#34; , &amp;#34;courier new&amp;#34; , monospace ; font-size: 14px ; line-height: 19px&quot;&gt;&lt;font&gt;初始化Provide&lt;/font&gt;&lt;/div&gt;" style="shape=ext;double=1;rounded=1;whiteSpace=wrap;html=1;fillColor=#6d8764;strokeColor=#3A5431;fontColor=#ffffff;" vertex="1" parent="1">
          <mxGeometry x="260" y="740" width="140" height="60" as="geometry" />
        </mxCell>
        <mxCell id="JnirWKJu8oiId7rXM8OC-19" value="" style="endArrow=classic;html=1;" edge="1" parent="1">
          <mxGeometry width="50" height="50" relative="1" as="geometry">
            <mxPoint x="330" y="830" as="sourcePoint" />
            <mxPoint x="220" y="830" as="targetPoint" />
          </mxGeometry>
        </mxCell>
        <mxCell id="JnirWKJu8oiId7rXM8OC-20" value="&lt;font size=&quot;1&quot;&gt;created&lt;/font&gt;" style="shape=ext;double=1;rounded=0;whiteSpace=wrap;html=1;strokeColor=#10739e;fillColor=#b1ddf0;" vertex="1" parent="1">
          <mxGeometry x="100" y="810" width="120" height="40" as="geometry" />
        </mxCell>
        <mxCell id="JnirWKJu8oiId7rXM8OC-25" style="edgeStyle=none;rounded=0;orthogonalLoop=1;jettySize=auto;html=1;entryX=0.5;entryY=0.001;entryDx=0;entryDy=0;entryPerimeter=0;" edge="1" parent="1" source="JnirWKJu8oiId7rXM8OC-22" target="JnirWKJu8oiId7rXM8OC-24">
          <mxGeometry relative="1" as="geometry" />
        </mxCell>
        <mxCell id="JnirWKJu8oiId7rXM8OC-22" value="是否指定 “el” 选项？" style="html=1;whiteSpace=wrap;aspect=fixed;shape=isoRectangle;strokeColor=#3A5431;fillColor=#6d8764;fontColor=#ffffff;" vertex="1" parent="1">
          <mxGeometry x="227.5" y="860" width="205" height="123" as="geometry" />
        </mxCell>
        <mxCell id="JnirWKJu8oiId7rXM8OC-24" value="是否指定 “el” 选项？" style="html=1;whiteSpace=wrap;aspect=fixed;shape=isoRectangle;strokeColor=#3A5431;fillColor=#6d8764;fontColor=#ffffff;" vertex="1" parent="1">
          <mxGeometry x="227.5" y="1040" width="205" height="123" as="geometry" />
        </mxCell>
      </root>
    </mxGraphModel>
  </diagram>
</mxfile>
